<?xml version="1.0" encoding="UTF-8"?>
<svg xmlns="http://www.w3.org/2000/svg" xmlns:xlink="http://www.w3.org/1999/xlink" width="1500" height="1000" viewBox="0 0 750 500">
<defs>
<filter id="filter-remove-color" x="0%" y="0%" width="100%" height="100%">
<feColorMatrix color-interpolation-filters="sRGB" values="0 0 0 0 1 0 0 0 0 1 0 0 0 0 1 0 0 0 1 0" />
</filter>
<mask id="mask-0">
<g filter="url(#filter-remove-color)">
<rect x="-75" y="-50" width="900" height="600" fill="rgb(0%, 0%, 0%)" fill-opacity="0.5"/>
</g>
</mask>
<clipPath id="clip-0">
<path clip-rule="nonzero" d="M 0.726562 0.21875 L 83.953125 0.21875 L 83.953125 204.871094 L 0.726562 204.871094 Z M 0.726562 0.21875 "/>
</clipPath>
<clipPath id="clip-1">
<rect x="0" y="0" width="84" height="205"/>
</clipPath>
<g id="source-5" clip-path="url(#clip-1)">
<g clip-path="url(#clip-0)">
<path fill-rule="nonzero" fill="rgb(0%, 0%, 0%)" fill-opacity="1" d="M 45.796875 0.292969 C 42.839844 -0.0507812 39.753906 0.71875 37.222656 4.269531 C 33.871094 8.96875 32.019531 17.683594 30.53125 26.089844 C 26.691406 47.820312 24.101562 70.644531 20.449219 92.550781 C 16.800781 114.460938 11.929688 135.890625 4.414062 151.601562 C 2.476562 155.648438 0.152344 160.804688 0.851562 166.632812 C 1.375 170.992188 3.417969 173.320312 5.316406 174.316406 C 7.214844 175.308594 9.261719 175.582031 10.886719 178.085938 C 11.941406 179.722656 12.710938 182.15625 13.632812 184.191406 C 17.769531 193.378906 24.242188 193.382812 29.894531 191.296875 C 34.371094 200.054688 40.210938 204.957031 46.0625 204.867188 C 47.902344 204.839844 50.011719 203.960938 50.957031 200.285156 C 51.175781 199.441406 51.355469 198.40625 51.753906 198.070312 C 52.265625 197.632812 52.777344 198.625 53.191406 199.457031 C 55.351562 203.8125 58.390625 205.707031 61.199219 204.441406 C 62.714844 203.757812 64.128906 202.234375 65.515625 200.675781 C 71.890625 193.511719 78.054688 185.351562 83.953125 176.269531 C 81.476562 155.847656 79 135.425781 76.523438 115.003906 C 73.234375 87.910156 69.945312 60.792969 65.855469 34.296875 C 62.75 14.15625 55.105469 1.375 45.796875 0.292969 "/>
</g>
</g>
<mask id="mask-1">
<g filter="url(#filter-remove-color)">
<rect x="-75" y="-50" width="900" height="600" fill="rgb(0%, 0%, 0%)" fill-opacity="0.5"/>
</g>
</mask>
<clipPath id="clip-2">
<path clip-rule="nonzero" d="M 0.015625 0.0078125 L 68.699219 0.0078125 L 68.699219 85.359375 L 0.015625 85.359375 Z M 0.015625 0.0078125 "/>
</clipPath>
<clipPath id="clip-3">
<rect x="0" y="0" width="69" height="86"/>
</clipPath>
<g id="source-8" clip-path="url(#clip-3)">
<g clip-path="url(#clip-2)">
<path fill-rule="nonzero" fill="rgb(0%, 0%, 0%)" fill-opacity="1" d="M 1.636719 84.699219 C 3.953125 81.675781 8.574219 81.851562 12.210938 82.980469 C 15.847656 84.109375 19.542969 85.921875 23.28125 85.1875 C 25.835938 84.683594 28.113281 82.929688 29.25 80.585938 C 30.421875 78.167969 30.652344 74.949219 33.015625 73.664062 C 34.828125 72.679688 37.042969 73.363281 39.070312 73.75 C 41.785156 74.265625 44.683594 74.183594 47.195312 73.035156 C 49.707031 71.886719 51.765625 69.554688 52.140625 66.816406 C 52.449219 64.53125 51.675781 61.941406 53.015625 60.066406 C 54.679688 57.738281 58.214844 58.246094 60.917969 57.316406 C 65.242188 55.828125 67.042969 50.816406 68.289062 46.414062 C 68.699219 44.96875 69.050781 43.226562 68.039062 42.109375 C 67.40625 41.410156 66.417969 41.1875 65.5 40.964844 C 56.25 38.757812 47.996094 33.480469 40.710938 27.367188 C 33.425781 21.253906 26.9375 14.253906 19.890625 7.867188 C 16.476562 4.769531 12.789062 1.738281 8.363281 0.4375 C 6.890625 0.00390625 5.273438 -0.21875 3.847656 0.351562 C 0.742188 1.59375 0.15625 5.660156 0.046875 9.003906 C -0.410156 22.875 4.792969 37.019531 3.148438 50.800781 C 1.769531 62.378906 1.660156 73.039062 1.636719 84.699219 "/>
</g>
</g>
<mask id="mask-2">
<g filter="url(#filter-remove-color)">
<rect x="-75" y="-50" width="900" height="600" fill="rgb(0%, 0%, 0%)" fill-opacity="0.5"/>
</g>
</mask>
<clipPath id="clip-4">
<path clip-rule="nonzero" d="M 0.00390625 0.1875 L 47.140625 0.1875 L 47.140625 55.980469 L 0.00390625 55.980469 Z M 0.00390625 0.1875 "/>
</clipPath>
<clipPath id="clip-5">
<rect x="0" y="0" width="48" height="56"/>
</clipPath>
<g id="source-11" clip-path="url(#clip-5)">
<g clip-path="url(#clip-4)">
<path fill-rule="nonzero" fill="rgb(0%, 0%, 0%)" fill-opacity="1" d="M 10.898438 55.53125 C 25.300781 58.015625 40.878906 49.933594 47.140625 36.726562 C 42.433594 34.960938 38.164062 32.042969 34.808594 28.296875 C 30.695312 23.707031 28.039062 18.03125 24.722656 12.835938 C 21.402344 7.644531 17.054688 2.671875 11.179688 0.8125 C 8.816406 0.0664062 6.179688 -0.121094 3.902344 0.859375 C 1.628906 1.839844 -0.15625 4.175781 0.015625 6.648438 C 1.140625 22.585938 7.804688 39.855469 10.898438 55.53125 "/>
</g>
</g>
<mask id="mask-3">
<g filter="url(#filter-remove-color)">
<rect x="-75" y="-50" width="900" height="600" fill="rgb(0%, 0%, 0%)" fill-opacity="0.5"/>
</g>
</mask>
<clipPath id="clip-6">
<path clip-rule="nonzero" d="M 0.492188 0.84375 L 47.15625 0.84375 L 47.15625 183.351562 L 0.492188 183.351562 Z M 0.492188 0.84375 "/>
</clipPath>
<clipPath id="clip-7">
<rect x="0" y="0" width="48" height="184"/>
</clipPath>
<g id="source-14" clip-path="url(#clip-7)">
<g clip-path="url(#clip-6)">
<path fill-rule="nonzero" fill="rgb(0%, 0%, 0%)" fill-opacity="1" d="M 36.984375 179.761719 C 31.875 186.570312 24.886719 183.421875 21.113281 172.617188 C 17.632812 178.421875 12.042969 173.058594 11.117188 163.03125 C 7.542969 166.808594 3.015625 164.234375 0.492188 156.992188 C 5.976562 146.011719 8.574219 128.445312 9.40625 111.261719 C 10.238281 94.078125 9.550781 76.691406 9.730469 59.394531 C 9.792969 52.992188 10.839844 46.34375 10.578125 39.980469 C 10.335938 33.988281 8.847656 28.109375 9.167969 22 C 9.453125 16.570312 10.941406 11.015625 14.492188 6.898438 C 18.746094 1.960938 28.78125 -1.039062 34.769531 2.171875 C 41.835938 5.964844 45.238281 15.933594 47.152344 23.105469 C 47.195312 67.375 45.890625 113.359375 43.675781 157.296875 C 43.441406 161.992188 43.179688 166.785156 42.300781 171.003906 C 41.425781 175.222656 38.683594 177.496094 36.984375 179.761719 "/>
</g>
</g>
<mask id="mask-4">
<g filter="url(#filter-remove-color)">
<rect x="-75" y="-50" width="900" height="600" fill="rgb(0%, 0%, 0%)" fill-opacity="0.5"/>
</g>
</mask>
<clipPath id="clip-8">
<path clip-rule="nonzero" d="M 0.898438 0.015625 L 52.984375 0.015625 L 52.984375 56.59375 L 0.898438 56.59375 Z M 0.898438 0.015625 "/>
</clipPath>
<clipPath id="clip-9">
<rect x="0" y="0" width="53" height="57"/>
</clipPath>
<g id="source-17" clip-path="url(#clip-9)">
<g clip-path="url(#clip-8)">
<path fill-rule="nonzero" fill="rgb(0%, 0%, 0%)" fill-opacity="1" d="M 14.5 55.402344 C 28.035156 58.890625 43.304688 54.558594 52.984375 44.476562 C 46.875 39.375 41.714844 33.136719 37.855469 26.171875 C 34.300781 19.757812 31.78125 12.660156 26.964844 7.128906 C 22.148438 1.601562 13.972656 -2.003906 7.398438 1.242188 C 2.144531 3.835938 -0.507812 10.71875 1.648438 16.167969 C 6.402344 28.191406 11.117188 42.921875 14.5 55.402344 "/>
</g>
</g>
</defs><g data-m="m-3)">
<use xlink:href="#source-14" transform="matrix(1, 0, 0, 1, 486, 213)"/>
</g></svg>