<?xml version="1.0" encoding="UTF-8"?>
<svg xmlns="http://www.w3.org/2000/svg" xmlns:xlink="http://www.w3.org/1999/xlink" width="1500" height="1000" viewBox="0 0 750 500">
<defs>
<filter id="filter-remove-color" x="0%" y="0%" width="100%" height="100%">
<feColorMatrix color-interpolation-filters="sRGB" values="0 0 0 0 1 0 0 0 0 1 0 0 0 0 1 0 0 0 1 0" />
</filter>
<mask id="mask-0">
<g filter="url(#filter-remove-color)">
<rect x="-75" y="-50" width="900" height="600" fill="rgb(0%, 0%, 0%)" fill-opacity="0.5"/>
</g>
</mask>
<clipPath id="clip-0">
<path clip-rule="nonzero" d="M 0.726562 0.21875 L 83.953125 0.21875 L 83.953125 204.871094 L 0.726562 204.871094 Z M 0.726562 0.21875 "/>
</clipPath>
<clipPath id="clip-1">
<rect x="0" y="0" width="84" height="205"/>
</clipPath>
<g id="source-5" clip-path="url(#clip-1)">
<g clip-path="url(#clip-0)">
<path fill-rule="nonzero" fill="rgb(0%, 0%, 0%)" fill-opacity="1" d="M 45.796875 0.292969 C 42.839844 -0.0507812 39.753906 0.71875 37.222656 4.269531 C 33.871094 8.96875 32.019531 17.683594 30.53125 26.089844 C 26.691406 47.820312 24.101562 70.644531 20.449219 92.550781 C 16.800781 114.460938 11.929688 135.890625 4.414062 151.601562 C 2.476562 155.648438 0.152344 160.804688 0.851562 166.632812 C 1.375 170.992188 3.417969 173.320312 5.316406 174.316406 C 7.214844 175.308594 9.261719 175.582031 10.886719 178.085938 C 11.941406 179.722656 12.710938 182.15625 13.632812 184.191406 C 17.769531 193.378906 24.242188 193.382812 29.894531 191.296875 C 34.371094 200.054688 40.210938 204.957031 46.0625 204.867188 C 47.902344 204.839844 50.011719 203.960938 50.957031 200.285156 C 51.175781 199.441406 51.355469 198.40625 51.753906 198.070312 C 52.265625 197.632812 52.777344 198.625 53.191406 199.457031 C 55.351562 203.8125 58.390625 205.707031 61.199219 204.441406 C 62.714844 203.757812 64.128906 202.234375 65.515625 200.675781 C 71.890625 193.511719 78.054688 185.351562 83.953125 176.269531 C 81.476562 155.847656 79 135.425781 76.523438 115.003906 C 73.234375 87.910156 69.945312 60.792969 65.855469 34.296875 C 62.75 14.15625 55.105469 1.375 45.796875 0.292969 "/>
</g>
</g>
<mask id="mask-1">
<g filter="url(#filter-remove-color)">
<rect x="-75" y="-50" width="900" height="600" fill="rgb(0%, 0%, 0%)" fill-opacity="0.5"/>
</g>
</mask>
<clipPath id="clip-2">
<path clip-rule="nonzero" d="M 0.015625 0.0078125 L 68.699219 0.0078125 L 68.699219 85.359375 L 0.015625 85.359375 Z M 0.015625 0.0078125 "/>
</clipPath>
<clipPath id="clip-3">
<rect x="0" y="0" width="69" height="86"/>
</clipPath>
<g id="source-8" clip-path="url(#clip-3)">
<g clip-path="url(#clip-2)">
<path fill-rule="nonzero" fill="rgb(0%, 0%, 0%)" fill-opacity="1" d="M 1.636719 84.699219 C 3.953125 81.675781 8.574219 81.851562 12.210938 82.980469 C 15.847656 84.109375 19.542969 85.921875 23.28125 85.1875 C 25.835938 84.683594 28.113281 82.929688 29.25 80.585938 C 30.421875 78.167969 30.652344 74.949219 33.015625 73.664062 C 34.828125 72.679688 37.042969 73.363281 39.070312 73.75 C 41.785156 74.265625 44.683594 74.183594 47.195312 73.035156 C 49.707031 71.886719 51.765625 69.554688 52.140625 66.816406 C 52.449219 64.53125 51.675781 61.941406 53.015625 60.066406 C 54.679688 57.738281 58.214844 58.246094 60.917969 57.316406 C 65.242188 55.828125 67.042969 50.816406 68.289062 46.414062 C 68.699219 44.96875 69.050781 43.226562 68.039062 42.109375 C 67.40625 41.410156 66.417969 41.1875 65.5 40.964844 C 56.25 38.757812 47.996094 33.480469 40.710938 27.367188 C 33.425781 21.253906 26.9375 14.253906 19.890625 7.867188 C 16.476562 4.769531 12.789062 1.738281 8.363281 0.4375 C 6.890625 0.00390625 5.273438 -0.21875 3.847656 0.351562 C 0.742188 1.59375 0.15625 5.660156 0.046875 9.003906 C -0.410156 22.875 4.792969 37.019531 3.148438 50.800781 C 1.769531 62.378906 1.660156 73.039062 1.636719 84.699219 "/>
</g>
</g>
<mask id="mask-2">
<g filter="url(#filter-remove-color)">
<rect x="-75" y="-50" width="900" height="600" fill="rgb(0%, 0%, 0%)" fill-opacity="0.5"/>
</g>
</mask>
<clipPath id="clip-4">
<path clip-rule="nonzero" d="M 0.00390625 0.1875 L 47.140625 0.1875 L 47.140625 55.980469 L 0.00390625 55.980469 Z M 0.00390625 0.1875 "/>
</clipPath>
<clipPath id="clip-5">
<rect x="0" y="0" width="48" height="56"/>
</clipPath>
<g id="source-11" clip-path="url(#clip-5)">
<g clip-path="url(#clip-4)">
<path fill-rule="nonzero" fill="rgb(0%, 0%, 0%)" fill-opacity="1" d="M 10.898438 55.53125 C 25.300781 58.015625 40.878906 49.933594 47.140625 36.726562 C 42.433594 34.960938 38.164062 32.042969 34.808594 28.296875 C 30.695312 23.707031 28.039062 18.03125 24.722656 12.835938 C 21.402344 7.644531 17.054688 2.671875 11.179688 0.8125 C 8.816406 0.0664062 6.179688 -0.121094 3.902344 0.859375 C 1.628906 1.839844 -0.15625 4.175781 0.015625 6.648438 C 1.140625 22.585938 7.804688 39.855469 10.898438 55.53125 "/>
</g>
</g>
<mask id="mask-3">
<g filter="url(#filter-remove-color)">
<rect x="-75" y="-50" width="900" height="600" fill="rgb(0%, 0%, 0%)" fill-opacity="0.5"/>
</g>
</mask>
<clipPath id="clip-6">
<path clip-rule="nonzero" d="M 0.492188 0.84375 L 47.15625 0.84375 L 47.15625 183.351562 L 0.492188 183.351562 Z M 0.492188 0.84375 "/>
</clipPath>
<clipPath id="clip-7">
<rect x="0" y="0" width="48" height="184"/>
</clipPath>
<g id="source-14" clip-path="url(#clip-7)">
<g clip-path="url(#clip-6)">
<path fill-rule="nonzero" fill="rgb(0%, 0%, 0%)" fill-opacity="1" d="M 36.984375 179.761719 C 31.875 186.570312 24.886719 183.421875 21.113281 172.617188 C 17.632812 178.421875 12.042969 173.058594 11.117188 163.03125 C 7.542969 166.808594 3.015625 164.234375 0.492188 156.992188 C 5.976562 146.011719 8.574219 128.445312 9.40625 111.261719 C 10.238281 94.078125 9.550781 76.691406 9.730469 59.394531 C 9.792969 52.992188 10.839844 46.34375 10.578125 39.980469 C 10.335938 33.988281 8.847656 28.109375 9.167969 22 C 9.453125 16.570312 10.941406 11.015625 14.492188 6.898438 C 18.746094 1.960938 28.78125 -1.039062 34.769531 2.171875 C 41.835938 5.964844 45.238281 15.933594 47.152344 23.105469 C 47.195312 67.375 45.890625 113.359375 43.675781 157.296875 C 43.441406 161.992188 43.179688 166.785156 42.300781 171.003906 C 41.425781 175.222656 38.683594 177.496094 36.984375 179.761719 "/>
</g>
</g>
<mask id="mask-4">
<g filter="url(#filter-remove-color)">
<rect x="-75" y="-50" width="900" height="600" fill="rgb(0%, 0%, 0%)" fill-opacity="0.5"/>
</g>
</mask>
<clipPath id="clip-8">
<path clip-rule="nonzero" d="M 0.898438 0.015625 L 52.984375 0.015625 L 52.984375 56.59375 L 0.898438 56.59375 Z M 0.898438 0.015625 "/>
</clipPath>
<clipPath id="clip-9">
<rect x="0" y="0" width="53" height="57"/>
</clipPath>
<g id="source-17" clip-path="url(#clip-9)">
<g clip-path="url(#clip-8)">
<path fill-rule="nonzero" fill="rgb(0%, 0%, 0%)" fill-opacity="1" d="M 14.5 55.402344 C 28.035156 58.890625 43.304688 54.558594 52.984375 44.476562 C 46.875 39.375 41.714844 33.136719 37.855469 26.171875 C 34.300781 19.757812 31.78125 12.660156 26.964844 7.128906 C 22.148438 1.601562 13.972656 -2.003906 7.398438 1.242188 C 2.144531 3.835938 -0.507812 10.71875 1.648438 16.167969 C 6.402344 28.191406 11.117188 42.921875 14.5 55.402344 "/>
</g>
</g>
</defs><path fill-rule="nonzero" fill="rgb(0%, 0%, 0%)" fill-opacity="1" d="M 486.539062 128.179688 C 486.21875 128.675781 485.730469 129.0625 485.464844 129.589844 C 485.195312 130.117188 485.265625 130.90625 485.820312 131.125 C 484.160156 132.472656 483.480469 134.679688 483.105469 136.785156 C 482.726562 138.890625 482.550781 141.085938 481.566406 142.984375 C 481.367188 140.351562 481.164062 137.71875 480.964844 135.085938 C 480.925781 134.589844 480.890625 134.078125 481.042969 133.601562 C 481.160156 133.234375 481.386719 132.90625 481.460938 132.53125 C 481.554688 132.085938 481.425781 131.628906 481.386719 131.175781 C 481.296875 130.222656 481.585938 129.277344 481.875 128.359375 C 482.359375 126.910156 484.613281 117.507812 485.78125 117.78125 C 487.847656 118.261719 487.371094 126.894531 486.539062 128.179688 M 501.515625 127.9375 C 501.148438 114.132812 498.433594 99.386719 498.890625 85.582031 C 498.941406 84.183594 498.957031 82.78125 498.945312 81.382812 C 498.945312 81.128906 498.933594 80.851562 498.785156 80.644531 C 498.625 80.429688 498.351562 80.339844 498.09375 80.265625 C 491.058594 78.132812 482.636719 77.066406 478.324219 71.113281 C 476.972656 69.25 475.527344 67.074219 473.910156 65.433594 C 473.046875 64.5625 473.539062 63.101562 474.078125 61.996094 C 474.648438 60.832031 475.339844 59.125 475.910156 57.960938 C 476.929688 58.0625 477.921875 57.476562 478.5625 56.671875 C 479.199219 55.871094 479.542969 54.878906 479.839844 53.894531 C 480.277344 52.449219 480.640625 50.976562 480.933594 49.492188 C 481.101562 48.621094 481.238281 47.675781 480.851562 46.875 C 480.460938 46.074219 479.332031 45.589844 478.648438 46.160156 C 478.496094 45.253906 478.351562 44.273438 478.625 43.398438 C 479.53125 40.488281 478.035156 37.425781 476.585938 34.742188 C 474.839844 31.519531 473.097656 28.300781 471.355469 25.078125 C 470.800781 26.277344 469.820312 27.269531 468.628906 27.839844 C 468.992188 25.269531 468.503906 22.589844 467.257812 20.3125 C 466.488281 22.996094 464.75 25.390625 462.4375 26.957031 C 462.441406 26.085938 462.160156 25.222656 461.644531 24.523438 C 460.695312 27.59375 458.84375 30.382812 456.378906 32.453125 C 455.050781 33.570312 453.523438 34.511719 452.558594 35.953125 C 450.660156 38.800781 451.296875 42.859375 452.222656 46.15625 C 451.667969 46.621094 450.847656 46.6875 450.3125 47.179688 C 449.550781 47.886719 449.6875 49.109375 449.910156 50.125 C 450.113281 51.046875 450.339844 51.96875 450.589844 52.882812 C 450.753906 53.496094 450.941406 54.125 451.359375 54.601562 C 451.902344 55.230469 452.964844 55.679688 453.449219 56.351562 C 453.28125 57.953125 453.113281 59.554688 452.945312 61.152344 C 452.867188 61.894531 452.636719 62.621094 452.367188 63.316406 C 451.152344 63.550781 450.234375 64.5 449.285156 65.289062 C 447.898438 66.4375 446.542969 67.476562 444.757812 67.707031 C 439.328125 68.40625 433.589844 69.527344 428.117188 69.632812 C 427.335938 69.644531 426.550781 69.660156 425.769531 69.675781 C 425.53125 69.679688 425.28125 69.6875 425.074219 69.804688 C 424.808594 69.957031 424.671875 70.257812 424.546875 70.539062 C 424.191406 71.355469 424.523438 71.351562 423.917969 72.007812 C 419.992188 76.261719 418.972656 82.34375 417.660156 87.980469 C 416.105469 94.652344 413.914062 101.171875 411.121094 107.425781 C 409.84375 110.28125 408.4375 113.101562 407.566406 116.109375 C 406.433594 120.027344 406.253906 124.144531 405.847656 128.203125 C 405.085938 135.835938 403.476562 143.226562 401.914062 150.734375 C 400.707031 149.042969 399.5 147.351562 398.296875 145.660156 C 397.757812 144.902344 396.898438 143.652344 397.527344 142.972656 C 396.398438 138.5 394.246094 134.289062 391.28125 130.75 C 389.378906 128.480469 387.144531 126.484375 385.433594 124.066406 C 383.976562 122.007812 382.933594 119.691406 381.902344 117.390625 C 379.667969 112.417969 378.363281 106.726562 375.609375 102.019531 C 374.328125 99.828125 372.855469 97.554688 370.554688 96.480469 C 366.957031 94.808594 362.441406 96.566406 358.890625 94.796875 C 357.949219 94.328125 356.851562 93.480469 356.765625 92.429688 C 357.851562 92.402344 358.582031 91.339844 359.125 90.398438 C 359.636719 89.503906 360.148438 88.609375 360.660156 87.71875 C 361.96875 85.4375 363.320312 82.613281 363.019531 80.003906 C 364.082031 79.417969 365.207031 78.222656 365.363281 77.019531 C 366.15625 77.234375 366.910156 77.585938 367.585938 78.054688 C 368.539062 74.734375 368.609375 71.117188 367.476562 67.855469 C 366.507812 65.078125 364.589844 62.648438 362.109375 61.097656 C 361.976562 58.542969 359.722656 56.121094 357.105469 56.332031 C 356.183594 53.710938 352.808594 52.285156 350.289062 53.453125 C 348.835938 51.886719 346.011719 52.15625 344.613281 53.773438 C 344.015625 54.460938 343.71875 55.328125 343.601562 56.230469 C 340.476562 57.015625 337.660156 59.046875 335.796875 61.710938 C 333.390625 65.144531 332.453125 69.453125 332.5625 73.644531 C 332.621094 75.886719 332.976562 78.15625 333.957031 80.171875 C 335.261719 82.855469 337.546875 84.765625 340.164062 86.257812 C 340.171875 86.40625 340.222656 86.53125 340.207031 86.691406 C 339.820312 90.664062 339.222656 95.054688 336.191406 97.648438 C 332.597656 100.722656 327.148438 99.984375 322.769531 101.765625 C 321.4375 102.308594 320.164062 103.128906 319.40625 104.351562 C 318.859375 105.242188 318.617188 106.28125 318.414062 107.308594 C 316.632812 116.347656 317.339844 125.859375 320.425781 134.539062 C 322.296875 139.792969 327.992188 144.839844 326.359375 150.171875 C 324.613281 155.882812 323.277344 161.722656 322.367188 167.628906 C 321.738281 171.714844 321.3125 175.875 321.847656 179.972656 C 322.382812 184.09375 323.839844 188.023438 325.085938 191.996094 C 323.425781 191.535156 321.609375 191.617188 320.035156 192.320312 C 321.472656 193.921875 323.382812 194.800781 325.234375 195.894531 C 324.039062 195.941406 322.902344 196.703125 322.40625 197.789062 C 321.910156 198.875 322.21875 200.363281 322.96875 201.292969 C 321.738281 200.800781 320.242188 201.644531 319.757812 202.878906 C 319.273438 204.113281 319.640625 205.558594 320.410156 206.640625 C 321.179688 207.71875 322.78125 207.714844 323.914062 208.398438 C 323.339844 208.929688 322.785156 209.515625 322.503906 210.25 C 322.226562 210.980469 322.28125 211.886719 322.820312 212.449219 C 323.632812 213.300781 325.785156 213.140625 326.914062 212.808594 C 327.609375 215.402344 327.199219 218.273438 325.800781 220.566406 C 325.457031 221.128906 325.042969 221.6875 324.96875 222.347656 C 324.898438 223.003906 325.34375 223.773438 326.003906 223.757812 C 326.765625 223.734375 327.332031 222.726562 328.066406 222.9375 C 326.976562 224.792969 326.609375 227.054688 327.050781 229.160156 C 327.632812 228.585938 328.320312 228.113281 329.0625 227.773438 C 328.929688 228.972656 328.792969 230.191406 328.976562 231.386719 C 329.15625 232.582031 329.695312 233.769531 330.667969 234.484375 C 330.527344 231.042969 331.335938 226.90625 331.792969 223.492188 C 331.472656 227.558594 332.488281 232.144531 332.933594 236.195312 C 334.921875 254.304688 331.195312 273 322.414062 288.964844 C 320.761719 291.972656 321.359375 294.929688 321.90625 298.316406 C 322.171875 299.953125 323.441406 301.191406 323.980469 302.753906 C 327.5625 304.058594 331.4375 304.554688 335.234375 304.195312 C 336.28125 304.09375 337.351562 303.921875 338.265625 303.398438 C 340.65625 302.027344 341.726562 297.042969 344.363281 296.242188 C 347.183594 295.386719 350.203125 295.199219 353.109375 295.691406 C 356.335938 296.242188 359.710938 297.609375 362.753906 296.410156 C 364.671875 295.65625 366.074219 294.003906 367.289062 292.339844 C 369.222656 289.695312 371.074219 287.605469 372.238281 284.546875 C 385.09375 250.796875 388.507812 212.179688 381.703125 176.710938 C 379.574219 165.613281 377.066406 153.554688 370.367188 144.453125 C 370.957031 143.027344 370.449219 140.953125 369.734375 139.589844 C 370.609375 135.421875 371.519531 130.9375 371.824219 126.691406 C 376.847656 134.65625 382.347656 142.324219 388.285156 149.636719 C 388.621094 150.007812 388.953125 150.375 389.289062 150.746094 C 392.972656 154.832031 397.234375 158.703125 400.917969 162.789062 C 400.203125 165.324219 399.484375 167.859375 398.765625 170.398438 C 398.59375 171.003906 398.640625 171.933594 399.269531 171.941406 C 399.425781 171.945312 399.597656 171.878906 399.726562 171.964844 C 399.917969 172.09375 399.824219 172.378906 399.753906 172.59375 C 399.496094 173.351562 399.820312 174.269531 400.496094 174.699219 C 401.171875 175.128906 402.136719 175.03125 402.714844 174.476562 C 402.703125 174.988281 402.628906 175.523438 403.011719 175.929688 C 403.222656 176.148438 403.507812 176.292969 403.800781 176.375 C 404.523438 176.578125 405.222656 176.261719 405.921875 176.164062 C 405.984375 176.480469 405.910156 176.863281 406.058594 177.160156 C 406.234375 177.507812 406.6875 177.804688 407.03125 177.960938 C 407.460938 178.15625 407.886719 178.144531 408.3125 177.960938 C 408.46875 177.890625 409.210938 177.183594 409.199219 177.179688 C 410.492188 177.550781 411.992188 176.507812 412.09375 175.167969 C 412.546875 175.78125 413.554688 175.878906 414.121094 175.363281 C 414.765625 174.769531 414.699219 173.753906 414.75 172.875 C 414.796875 171.996094 415.386719 170.753906 416.265625 170.777344 C 416.558594 180.714844 416.101562 190.675781 414.898438 200.546875 C 414.496094 203.84375 414.007812 207.15625 414.195312 210.472656 C 414.433594 214.765625 417.515625 219.421875 417.945312 223.695312 C 418.351562 227.738281 418.757812 231.78125 419.167969 235.828125 C 419.367188 237.8125 419.570312 239.816406 420.199219 241.707031 C 420.6875 243.164062 421.421875 244.539062 421.773438 246.035156 C 421.992188 246.964844 422.058594 247.921875 422.257812 248.851562 C 423.078125 252.726562 425.988281 255.390625 428.570312 258.3125 C 428.292969 260.210938 427.875 262.09375 427.46875 263.972656 C 426.117188 270.234375 426.035156 276.769531 427.21875 283.0625 C 427.429688 284.171875 427.875 285.480469 428.976562 285.714844 C 429.886719 285.90625 430.734375 285.238281 431.421875 284.613281 C 434.449219 281.847656 437.417969 278.949219 439.652344 275.507812 C 441.886719 272.0625 443.359375 268.003906 443.113281 263.90625 C 443.007812 262.136719 442.585938 260.382812 442.640625 258.609375 C 442.714844 256.253906 443.621094 254.015625 444.246094 251.738281 C 444.871094 249.464844 445.203125 246.941406 444.171875 244.816406 C 443.421875 243.257812 441.695312 242.128906 440.039062 242.117188 C 439.183594 241.257812 438.460938 240.300781 438.101562 239.148438 C 437.882812 238.449219 437.804688 237.714844 437.738281 236.984375 C 437.414062 233.503906 435.84375 229.5 437.132812 226.25 C 437.683594 224.863281 438.234375 223.476562 438.78125 222.089844 C 438.929688 221.714844 439.082031 221.3125 438.996094 220.917969 C 438.914062 220.539062 438.628906 220.242188 438.460938 219.894531 C 437.90625 218.761719 438.652344 217.460938 439.273438 216.359375 C 440.894531 213.5 441.800781 210.238281 441.886719 206.949219 C 441.96875 203.871094 441.34375 200.800781 441.421875 197.71875 C 441.503906 194.636719 442.714844 191.421875 445.207031 189.605469 C 447.152344 197.484375 448.28125 205.566406 448.570312 213.679688 C 448.636719 215.597656 448.660156 217.515625 448.679688 219.433594 C 448.710938 222.527344 448.746094 225.621094 448.757812 228.714844 C 448.800781 241.496094 448.492188 254.535156 447.425781 267.273438 C 447.339844 267.113281 447.214844 267.445312 447.332031 267.589844 C 447.472656 267.769531 447.617188 267.953125 447.761719 268.132812 C 447.691406 268.417969 447.628906 268.707031 447.464844 268.945312 C 446.902344 269.765625 445.667969 269.847656 445.035156 270.613281 C 444.507812 271.253906 444.550781 272.171875 444.621094 273 C 444.796875 275.046875 444.96875 277.09375 445.144531 279.144531 C 445.488281 283.203125 443.589844 287.710938 443.960938 291.769531 C 444.148438 293.816406 444.632812 296.042969 446.269531 297.289062 C 447.503906 298.230469 449.183594 298.410156 450.710938 298.125 C 452.234375 297.839844 453.644531 297.136719 455.03125 296.4375 C 457.277344 295.3125 459.707031 293.988281 460.601562 291.644531 C 461.878906 288.292969 459.425781 284.464844 460.378906 281.007812 C 461.074219 278.484375 461.097656 275.792969 460.972656 273.070312 C 461.613281 272.894531 462.273438 272.789062 462.886719 272.53125 C 463.746094 272.167969 464.601562 271.710938 465.179688 270.972656 C 465.753906 270.238281 466.253906 269.46875 465.796875 268.652344 C 466.941406 251.5 463.984375 233.757812 468.109375 217.066406 C 468.476562 215.570312 468.847656 214.074219 469.21875 212.578125 C 469.316406 212.183594 469.414062 211.773438 469.339844 211.371094 C 469.261719 210.980469 469.03125 210.640625 468.886719 210.269531 C 468.570312 209.457031 468.695312 208.550781 468.835938 207.691406 C 469.921875 201.121094 471.699219 194.65625 474.132812 188.453125 C 476.136719 183.351562 478.96875 177.089844 478.574219 171.625 C 479.527344 171.695312 480.777344 171.183594 481.683594 170.878906 C 483.835938 166.519531 488.148438 163.765625 489.984375 159.261719 C 493.097656 151.632812 499.320312 145.316406 501.007812 137.25 C 501.648438 134.203125 501.597656 131.054688 501.515625 127.9375 "/></svg>